<?xml version="1.0" encoding="UTF-8" standalone="no"?>
<svg
   width="295"
   height="70"
   viewBox="0 0 295 70"
   fill="none"
   version="1.1"
   id="svg69"
   sodipodi:docname="Translatio-github-logo-back-transparent.svg"
   inkscape:export-filename="Translatio13.svg"
   inkscape:export-xdpi="96"
   inkscape:export-ydpi="96"
   xmlns:inkscape="http://www.inkscape.org/namespaces/inkscape"
   xmlns:sodipodi="http://sodipodi.sourceforge.net/DTD/sodipodi-0.dtd"
   xmlns="http://www.w3.org/2000/svg"
   xmlns:svg="http://www.w3.org/2000/svg">
  <defs
     id="defs73" />
  <sodipodi:namedview
     id="namedview71"
     pagecolor="#ffffff"
     bordercolor="#000000"
     borderopacity="0.25"
     inkscape:showpageshadow="2"
     inkscape:pageopacity="0.0"
     inkscape:pagecheckerboard="0"
     inkscape:deskcolor="#d1d1d1"
     showgrid="false" />
  <mask
     id="path-2-outside-1_172_758"
     maskUnits="userSpaceOnUse"
     x="40.3594"
     y="127.731"
     width="168"
     height="40"
     fill="#000000">
    <rect
       fill="#ffffff"
       x="40.359402"
       y="127.731"
       width="168"
       height="40"
       id="rect2" />
    <path
       d="m 56.33,141.43 c 0,0.412 -0.1639,0.793 -0.4917,1.142 -0.3278,0.348 -0.8287,0.523 -1.5025,0.523 -1.2567,0 -2.4405,0.214 -3.5515,0.642 -1.1109,0.428 -2.0944,1.007 -2.9504,1.736 -0.8378,0.713 -1.4934,1.546 -1.9669,2.497 -0.4736,0.967 -0.7103,2.005 -0.7103,3.115 v 12.889 c 0,0.618 -0.2004,1.062 -0.601,1.332 -0.4007,0.285 -0.8378,0.428 -1.3113,0.428 -0.4736,0 -0.9016,-0.143 -1.284,-0.428 -0.4007,-0.27 -0.601,-0.714 -0.601,-1.332 v -12.889 c 0,-1.569 0.3369,-3.028 1.0108,-4.376 0.6738,-1.347 1.6027,-2.536 2.7865,-3.567 1.1838,-1.03 2.5588,-1.839 4.1251,-2.425 1.5663,-0.587 3.2509,-0.88 5.054,-0.88 0.6738,0 1.1747,0.158 1.5025,0.476 z"
       id="path4" />
    <path
       d="m 81.6272,152.726 c 0,-1.332 -0.2914,-2.584 -0.8742,-3.757 -0.5828,-1.158 -1.3751,-2.172 -2.3768,-3.044 -1.0199,-0.872 -2.1946,-1.562 -3.5241,-2.069 -1.3477,-0.507 -2.7865,-0.761 -4.3163,-0.761 -1.5117,0 -2.9322,0.254 -4.2617,0.761 -1.3478,0.507 -2.5134,1.197 -3.4968,2.069 -1.0017,0.872 -1.794,1.886 -2.3768,3.044 -0.5828,1.173 -0.8742,2.425 -0.8742,3.757 0,1.332 0.2914,2.584 0.8742,3.757 0.5828,1.173 1.3751,2.196 2.3768,3.068 0.9834,0.872 2.149,1.562 3.4968,2.069 1.3295,0.507 2.75,0.761 4.2617,0.761 1.5298,0 2.9686,-0.254 4.3163,-0.761 1.3295,-0.507 2.5042,-1.197 3.5241,-2.069 1.0017,-0.872 1.794,-1.895 2.3768,-3.068 z m 3.7973,11.153 c 0,0.587 -0.2004,1.023 -0.601,1.308 -0.4007,0.301 -0.8378,0.452 -1.3113,0.452 -0.4736,0 -0.9015,-0.151 -1.284,-0.452 -0.4007,-0.285 -0.601,-0.721 -0.601,-1.308 v -2.521 c -1.3842,1.316 -3.0233,2.355 -4.9174,3.116 -1.8941,0.776 -3.9521,1.165 -6.174,1.165 -1.366,0 -2.6773,-0.159 -3.9339,-0.476 -1.2567,-0.301 -2.4314,-0.737 -3.5241,-1.308 -1.111,-0.555 -2.1127,-1.228 -3.0051,-2.021 -0.9106,-0.777 -1.6847,-1.649 -2.3221,-2.616 -0.6374,-0.951 -1.1292,-1.974 -1.4752,-3.068 -0.3643,-1.094 -0.5464,-2.235 -0.5464,-3.424 0,-1.776 0.3916,-3.448 1.1747,-5.018 0.765,-1.569 1.8213,-2.941 3.169,-4.114 1.3295,-1.157 2.8958,-2.077 4.6988,-2.758 1.8031,-0.666 3.7245,-0.999 5.7643,-0.999 1.3659,0 2.6863,0.151 3.9612,0.452 1.2749,0.317 2.4678,0.753 3.5787,1.308 1.0928,0.555 2.0945,1.22 3.0051,1.997 0.8924,0.793 1.6664,1.665 2.3221,2.616 0.6374,0.967 1.1383,1.998 1.5025,3.092 0.3461,1.093 0.5191,2.235 0.5191,3.424 z"
       id="path6" />
    <path
       d="m 114.956,163.974 c 0,0.618 -0.2,1.062 -0.601,1.332 -0.401,0.285 -0.838,0.428 -1.311,0.428 -0.474,0 -0.911,-0.143 -1.312,-0.428 -0.4,-0.27 -0.601,-0.714 -0.601,-1.332 v -12.889 c 0,-1.094 -0.236,-2.132 -0.71,-3.115 -0.473,-0.967 -1.12,-1.815 -1.94,-2.545 -0.837,-0.713 -1.803,-1.284 -2.895,-1.712 -1.111,-0.412 -2.295,-0.618 -3.552,-0.618 -1.256,0 -2.4402,0.206 -3.5512,0.618 -1.1291,0.428 -2.1035,0.999 -2.9231,1.712 -0.8377,0.73 -1.4934,1.578 -1.9669,2.545 -0.4918,0.983 -0.7376,2.021 -0.7376,3.115 v 12.889 c 0,0.618 -0.2004,1.062 -0.601,1.332 -0.4007,0.285 -0.8378,0.428 -1.3113,0.428 -0.4736,0 -0.9016,-0.143 -1.284,-0.428 -0.4007,-0.27 -0.601,-0.714 -0.601,-1.332 v -12.889 c 0,-1.538 0.346,-2.996 1.0381,-4.376 0.6738,-1.363 1.6027,-2.552 2.7865,-3.567 1.1838,-1.014 2.5588,-1.823 4.1251,-2.425 1.5663,-0.587 3.2414,-0.88 5.0264,-0.88 1.767,0 3.442,0.293 5.027,0.88 1.566,0.602 2.932,1.411 4.098,2.425 1.165,1.015 2.094,2.204 2.786,3.567 0.674,1.38 1.011,2.838 1.011,4.376 z"
       id="path8" />
    <path
       d="m 138.177,158.291 c 0,1.078 -0.237,2.068 -0.71,2.972 -0.492,0.904 -1.139,1.681 -1.94,2.331 -0.82,0.65 -1.767,1.149 -2.841,1.498 -1.093,0.364 -2.24,0.547 -3.442,0.547 h -8.688 c -0.674,0 -1.174,-0.175 -1.502,-0.523 -0.328,-0.349 -0.492,-0.73 -0.492,-1.142 0,-0.412 0.164,-0.785 0.492,-1.118 0.328,-0.317 0.828,-0.475 1.502,-0.475 h 8.688 c 0.674,0 1.32,-0.095 1.939,-0.286 0.62,-0.19 1.166,-0.467 1.639,-0.832 0.474,-0.349 0.856,-0.777 1.148,-1.284 0.273,-0.491 0.41,-1.054 0.41,-1.688 0,-0.714 -0.201,-1.38 -0.601,-1.998 -0.401,-0.618 -0.984,-1.062 -1.749,-1.332 l -8.387,-2.948 c -1.438,-0.508 -2.577,-1.285 -3.414,-2.331 -0.856,-1.046 -1.284,-2.235 -1.284,-3.567 0,-0.935 0.227,-1.791 0.683,-2.568 0.437,-0.777 1.029,-1.443 1.775,-1.998 0.747,-0.539 1.603,-0.959 2.568,-1.26 0.965,-0.301 1.958,-0.452 2.978,-0.452 h 7.649 c 0.674,0 1.184,0.158 1.53,0.476 0.328,0.332 0.492,0.705 0.492,1.117 0,0.412 -0.164,0.793 -0.492,1.142 -0.346,0.348 -0.856,0.523 -1.53,0.523 h -7.649 c -0.51,0 -1.011,0.063 -1.503,0.19 -0.51,0.143 -0.965,0.341 -1.366,0.595 -0.4,0.269 -0.719,0.586 -0.956,0.951 -0.255,0.38 -0.382,0.808 -0.382,1.284 0,0.666 0.209,1.237 0.628,1.712 0.419,0.492 0.975,0.864 1.667,1.118 l 8.441,2.949 c 0.729,0.253 1.384,0.602 1.967,1.046 0.583,0.444 1.075,0.943 1.475,1.498 0.401,0.571 0.711,1.181 0.929,1.831 z"
       id="path10" />
    <path
       d="m 145.58,163.974 c 0,0.618 -0.2,1.062 -0.601,1.332 -0.4,0.285 -0.837,0.428 -1.311,0.428 -0.474,0 -0.902,-0.143 -1.284,-0.428 -0.401,-0.27 -0.601,-0.714 -0.601,-1.332 v -33.507 c 0,-0.586 0.2,-1.022 0.601,-1.308 0.382,-0.285 0.81,-0.428 1.284,-0.428 0.474,0 0.911,0.143 1.311,0.428 0.401,0.286 0.601,0.722 0.601,1.308 z"
       id="path12" />
    <path
       d="m 175.057,152.726 c 0,-1.332 -0.291,-2.584 -0.874,-3.757 -0.583,-1.158 -1.375,-2.172 -2.377,-3.044 -1.02,-0.872 -2.194,-1.562 -3.524,-2.069 -1.348,-0.507 -2.786,-0.761 -4.316,-0.761 -1.512,0 -2.932,0.254 -4.262,0.761 -1.348,0.507 -2.513,1.197 -3.497,2.069 -1.001,0.872 -1.794,1.886 -2.376,3.044 -0.583,1.173 -0.875,2.425 -0.875,3.757 0,1.332 0.292,2.584 0.875,3.757 0.582,1.173 1.375,2.196 2.376,3.068 0.984,0.872 2.149,1.562 3.497,2.069 1.33,0.507 2.75,0.761 4.262,0.761 1.53,0 2.968,-0.254 4.316,-0.761 1.33,-0.507 2.504,-1.197 3.524,-2.069 1.002,-0.872 1.794,-1.895 2.377,-3.068 z m 3.798,11.153 c 0,0.587 -0.201,1.023 -0.601,1.308 -0.401,0.301 -0.838,0.452 -1.312,0.452 -0.473,0 -0.901,-0.151 -1.284,-0.452 -0.4,-0.285 -0.601,-0.721 -0.601,-1.308 v -2.521 c -1.384,1.316 -3.023,2.355 -4.917,3.116 -1.894,0.776 -3.952,1.165 -6.174,1.165 -1.366,0 -2.677,-0.159 -3.934,-0.476 -1.257,-0.301 -2.431,-0.737 -3.524,-1.308 -1.111,-0.555 -2.113,-1.228 -3.005,-2.021 -0.911,-0.777 -1.685,-1.649 -2.322,-2.616 -0.638,-0.951 -1.13,-1.974 -1.476,-3.068 -0.364,-1.094 -0.546,-2.235 -0.546,-3.424 0,-1.776 0.392,-3.448 1.175,-5.018 0.765,-1.569 1.821,-2.941 3.169,-4.114 1.329,-1.157 2.896,-2.077 4.699,-2.758 1.803,-0.666 3.724,-0.999 5.764,-0.999 1.366,0 2.686,0.151 3.961,0.452 1.275,0.317 2.468,0.753 3.579,1.308 1.093,0.555 2.094,1.22 3.005,1.997 0.892,0.793 1.666,1.665 2.322,2.616 0.637,0.967 1.138,1.998 1.502,3.092 0.346,1.093 0.52,2.235 0.52,3.424 z"
       id="path14" />
    <path
       d="m 197.568,141.43 c 0,0.412 -0.164,0.793 -0.492,1.142 -0.328,0.348 -0.829,0.523 -1.502,0.523 h -9.289 v 11.391 c 0,1.078 0.237,2.092 0.71,3.044 0.456,0.951 1.093,1.783 1.913,2.497 0.838,0.713 1.803,1.284 2.896,1.712 1.092,0.428 2.276,0.642 3.551,0.642 0.674,0 1.175,0.166 1.503,0.499 0.327,0.349 0.491,0.714 0.491,1.094 0,0.412 -0.164,0.793 -0.491,1.142 -0.328,0.348 -0.829,0.523 -1.503,0.523 -1.803,0 -3.479,-0.294 -5.027,-0.88 -1.548,-0.587 -2.895,-1.379 -4.043,-2.378 -1.184,-1.031 -2.112,-2.22 -2.786,-3.567 -0.674,-1.348 -1.011,-2.79 -1.011,-4.328 v -24.019 c 0,-0.586 0.2,-1.022 0.601,-1.308 0.382,-0.285 0.81,-0.428 1.284,-0.428 0.473,0 0.911,0.143 1.311,0.428 0.401,0.286 0.601,0.722 0.601,1.308 v 9.37 h 9.289 c 0.673,0 1.174,0.158 1.502,0.476 z"
       id="path16" />
    <path
       d="m 205.982,163.974 c 0,0.618 -0.2,1.062 -0.601,1.332 -0.401,0.285 -0.838,0.428 -1.311,0.428 -0.474,0 -0.911,-0.143 -1.312,-0.428 -0.4,-0.27 -0.601,-0.714 -0.601,-1.332 V 141.43 c 0,-0.586 0.201,-1.03 0.601,-1.331 0.401,-0.286 0.838,-0.429 1.312,-0.429 0.473,0 0.91,0.143 1.311,0.429 0.401,0.301 0.601,0.745 0.601,1.331 z m 1.011,-30.177 c 0,0.333 -0.073,0.65 -0.219,0.951 -0.164,0.317 -0.373,0.586 -0.628,0.808 -0.273,0.238 -0.583,0.421 -0.929,0.547 -0.364,0.143 -0.747,0.214 -1.147,0.214 -0.401,0 -0.774,-0.071 -1.12,-0.214 -0.365,-0.126 -0.674,-0.309 -0.929,-0.547 -0.255,-0.222 -0.456,-0.491 -0.601,-0.808 -0.164,-0.301 -0.246,-0.618 -0.246,-0.951 0,-0.349 0.082,-0.682 0.246,-0.999 0.145,-0.317 0.346,-0.595 0.601,-0.832 0.255,-0.238 0.564,-0.428 0.929,-0.571 0.346,-0.127 0.719,-0.19 1.12,-0.19 0.4,0 0.783,0.063 1.147,0.19 0.346,0.143 0.656,0.333 0.929,0.571 0.255,0.237 0.464,0.515 0.628,0.832 z"
       id="path18" />
  </mask>
  <path
     d="m 56.33,29.43 c 0,0.412 -0.1639,0.793 -0.4917,1.142 -0.3278,0.348 -0.8287,0.523 -1.5025,0.523 -1.2567,0 -2.4405,0.214 -3.5515,0.642 -1.1109,0.428 -2.0944,1.007 -2.9504,1.736 -0.8378,0.713 -1.4934,1.546 -1.9669,2.497 -0.4736,0.967 -0.7103,2.005 -0.7103,3.115 v 12.889 c 0,0.618 -0.2004,1.062 -0.601,1.332 -0.4007,0.285 -0.8378,0.428 -1.3113,0.428 -0.4736,0 -0.9016,-0.143 -1.284,-0.428 -0.4007,-0.27 -0.601,-0.714 -0.601,-1.332 V 39.085 c 0,-1.569 0.3369,-3.028 1.0108,-4.376 0.6738,-1.347 1.6027,-2.536 2.7865,-3.567 1.1838,-1.03 2.5588,-1.839 4.1251,-2.425 1.5663,-0.587 3.2509,-0.88 5.054,-0.88 0.6738,0 1.1747,0.158 1.5025,0.476 z"
     fill="#2fb9b5"
     id="path21" />
  <path
     d="m 81.6272,40.726 c 0,-1.332 -0.2914,-2.584 -0.8742,-3.757 -0.5828,-1.158 -1.3751,-2.172 -2.3768,-3.044 -1.0199,-0.872 -2.1946,-1.562 -3.5241,-2.069 -1.3477,-0.507 -2.7865,-0.761 -4.3163,-0.761 -1.5117,0 -2.9322,0.254 -4.2617,0.761 -1.3478,0.507 -2.5134,1.197 -3.4968,2.069 -1.0017,0.872 -1.794,1.886 -2.3768,3.044 -0.5828,1.173 -0.8742,2.425 -0.8742,3.757 0,1.332 0.2914,2.584 0.8742,3.757 0.5828,1.173 1.3751,2.196 2.3768,3.068 0.9834,0.872 2.149,1.562 3.4968,2.069 1.3295,0.507 2.75,0.761 4.2617,0.761 1.5298,0 2.9686,-0.254 4.3163,-0.761 1.3295,-0.507 2.5042,-1.197 3.5241,-2.069 1.0017,-0.872 1.794,-1.895 2.3768,-3.068 z m 3.7973,11.153 c 0,0.587 -0.2004,1.023 -0.601,1.308 -0.4007,0.301 -0.8378,0.452 -1.3113,0.452 -0.4736,0 -0.9015,-0.151 -1.284,-0.452 -0.4007,-0.285 -0.601,-0.721 -0.601,-1.308 v -2.521 c -1.3842,1.316 -3.0233,2.355 -4.9174,3.116 -1.8941,0.776 -3.9521,1.165 -6.174,1.165 -1.366,0 -2.6773,-0.159 -3.9339,-0.476 C 65.3452,52.862 64.1705,52.426 63.0778,51.855 61.9668,51.3 60.9651,50.627 60.0727,49.834 59.1621,49.057 58.388,48.185 57.7506,47.218 57.1132,46.267 56.6214,45.244 56.2754,44.15 55.9111,43.056 55.729,41.915 55.729,40.726 c 0,-1.776 0.3916,-3.448 1.1747,-5.018 0.765,-1.569 1.8213,-2.941 3.169,-4.114 1.3295,-1.157 2.8958,-2.077 4.6988,-2.758 1.8031,-0.666 3.7245,-0.999 5.7643,-0.999 1.3659,0 2.6863,0.151 3.9612,0.452 1.2749,0.317 2.4678,0.753 3.5787,1.308 1.0928,0.555 2.0945,1.22 3.0051,1.997 0.8924,0.793 1.6664,1.665 2.3221,2.616 0.6374,0.967 1.1383,1.998 1.5025,3.092 0.3461,1.093 0.5191,2.235 0.5191,3.424 z"
     fill="#2fb9b5"
     id="path23" />
  <path
     d="m 114.956,51.974 c 0,0.618 -0.2,1.062 -0.601,1.332 -0.401,0.285 -0.838,0.428 -1.311,0.428 -0.474,0 -0.911,-0.143 -1.312,-0.428 -0.4,-0.27 -0.601,-0.714 -0.601,-1.332 V 39.085 c 0,-1.094 -0.236,-2.132 -0.71,-3.115 -0.473,-0.967 -1.12,-1.815 -1.94,-2.545 -0.837,-0.713 -1.803,-1.284 -2.895,-1.712 -1.111,-0.412 -2.295,-0.618 -3.552,-0.618 -1.256,0 -2.4402,0.206 -3.5512,0.618 -1.1291,0.428 -2.1035,0.999 -2.9231,1.712 -0.8377,0.73 -1.4934,1.578 -1.9669,2.545 -0.4918,0.983 -0.7376,2.021 -0.7376,3.115 v 12.889 c 0,0.618 -0.2004,1.062 -0.601,1.332 -0.4007,0.285 -0.8378,0.428 -1.3113,0.428 -0.4736,0 -0.9016,-0.143 -1.284,-0.428 -0.4007,-0.27 -0.601,-0.714 -0.601,-1.332 V 39.085 c 0,-1.538 0.346,-2.996 1.0381,-4.376 0.6738,-1.363 1.6027,-2.552 2.7865,-3.567 1.1838,-1.014 2.5588,-1.823 4.1251,-2.425 1.5663,-0.587 3.2414,-0.88 5.0264,-0.88 1.767,0 3.442,0.293 5.027,0.88 1.566,0.602 2.932,1.411 4.098,2.425 1.165,1.015 2.094,2.204 2.786,3.567 0.674,1.38 1.011,2.838 1.011,4.376 z"
     fill="#2fb9b5"
     id="path25" />
  <path
     d="m 138.177,46.291 c 0,1.078 -0.237,2.068 -0.71,2.972 -0.492,0.904 -1.139,1.681 -1.94,2.331 -0.82,0.65 -1.767,1.149 -2.841,1.498 -1.093,0.364 -2.24,0.547 -3.442,0.547 h -8.688 c -0.674,0 -1.174,-0.175 -1.502,-0.523 -0.328,-0.349 -0.492,-0.73 -0.492,-1.142 0,-0.412 0.164,-0.785 0.492,-1.118 0.328,-0.317 0.828,-0.475 1.502,-0.475 h 8.688 c 0.674,0 1.32,-0.095 1.939,-0.286 0.62,-0.19 1.166,-0.467 1.639,-0.832 0.474,-0.349 0.856,-0.777 1.148,-1.284 0.273,-0.491 0.41,-1.054 0.41,-1.688 0,-0.714 -0.201,-1.38 -0.601,-1.998 -0.401,-0.618 -0.984,-1.062 -1.749,-1.332 l -8.387,-2.948 c -1.438,-0.508 -2.577,-1.285 -3.414,-2.331 -0.856,-1.046 -1.284,-2.235 -1.284,-3.567 0,-0.935 0.227,-1.791 0.683,-2.568 0.437,-0.777 1.029,-1.443 1.775,-1.998 0.747,-0.539 1.603,-0.959 2.568,-1.26 0.965,-0.301 1.958,-0.452 2.978,-0.452 h 7.649 c 0.674,0 1.184,0.158 1.53,0.476 0.328,0.332 0.492,0.705 0.492,1.117 0,0.412 -0.164,0.793 -0.492,1.142 -0.346,0.348 -0.856,0.523 -1.53,0.523 h -7.649 c -0.51,0 -1.011,0.063 -1.503,0.19 -0.51,0.143 -0.965,0.341 -1.366,0.595 -0.4,0.269 -0.719,0.586 -0.956,0.951 -0.255,0.38 -0.382,0.808 -0.382,1.284 0,0.666 0.209,1.237 0.628,1.712 0.419,0.492 0.975,0.864 1.667,1.118 l 8.441,2.949 c 0.729,0.253 1.384,0.602 1.967,1.046 0.583,0.444 1.075,0.943 1.475,1.498 0.401,0.571 0.711,1.181 0.929,1.831 z"
     fill="#2fb9b5"
     id="path27" />
  <path
     d="m 145.58,51.974 c 0,0.618 -0.2,1.062 -0.601,1.332 -0.4,0.285 -0.837,0.428 -1.311,0.428 -0.474,0 -0.902,-0.143 -1.284,-0.428 -0.401,-0.27 -0.601,-0.714 -0.601,-1.332 V 18.467 c 0,-0.586 0.2,-1.022 0.601,-1.308 0.382,-0.285 0.81,-0.428 1.284,-0.428 0.474,0 0.911,0.143 1.311,0.428 0.401,0.286 0.601,0.722 0.601,1.308 z"
     fill="#2fb9b5"
     id="path29" />
  <path
     d="m 175.057,40.726 c 0,-1.332 -0.291,-2.584 -0.874,-3.757 -0.583,-1.158 -1.375,-2.172 -2.377,-3.044 -1.02,-0.872 -2.194,-1.562 -3.524,-2.069 -1.348,-0.507 -2.786,-0.761 -4.316,-0.761 -1.512,0 -2.932,0.254 -4.262,0.761 -1.348,0.507 -2.513,1.197 -3.497,2.069 -1.001,0.872 -1.794,1.886 -2.376,3.044 -0.583,1.173 -0.875,2.425 -0.875,3.757 0,1.332 0.292,2.584 0.875,3.757 0.582,1.173 1.375,2.196 2.376,3.068 0.984,0.872 2.149,1.562 3.497,2.069 1.33,0.507 2.75,0.761 4.262,0.761 1.53,0 2.968,-0.254 4.316,-0.761 1.33,-0.507 2.504,-1.197 3.524,-2.069 1.002,-0.872 1.794,-1.895 2.377,-3.068 z m 3.798,11.153 c 0,0.587 -0.201,1.023 -0.601,1.308 -0.401,0.301 -0.838,0.452 -1.312,0.452 -0.473,0 -0.901,-0.151 -1.284,-0.452 -0.4,-0.285 -0.601,-0.721 -0.601,-1.308 v -2.521 c -1.384,1.316 -3.023,2.355 -4.917,3.116 -1.894,0.776 -3.952,1.165 -6.174,1.165 -1.366,0 -2.677,-0.159 -3.934,-0.476 -1.257,-0.301 -2.431,-0.737 -3.524,-1.308 -1.111,-0.555 -2.113,-1.228 -3.005,-2.021 -0.911,-0.777 -1.685,-1.649 -2.322,-2.616 -0.638,-0.951 -1.13,-1.974 -1.476,-3.068 -0.364,-1.094 -0.546,-2.235 -0.546,-3.424 0,-1.776 0.392,-3.448 1.175,-5.018 0.765,-1.569 1.821,-2.941 3.169,-4.114 1.329,-1.157 2.896,-2.077 4.699,-2.758 1.803,-0.666 3.724,-0.999 5.764,-0.999 1.366,0 2.686,0.151 3.961,0.452 1.275,0.317 2.468,0.753 3.579,1.308 1.093,0.555 2.094,1.22 3.005,1.997 0.892,0.793 1.666,1.665 2.322,2.616 0.637,0.967 1.138,1.998 1.502,3.092 0.346,1.093 0.52,2.235 0.52,3.424 z"
     fill="#2fb9b5"
     id="path31" />
  <path
     d="m 197.568,29.43 c 0,0.412 -0.164,0.793 -0.492,1.142 -0.328,0.348 -0.829,0.523 -1.502,0.523 h -9.289 v 11.391 c 0,1.078 0.237,2.092 0.71,3.044 0.456,0.951 1.093,1.783 1.913,2.497 0.838,0.713 1.803,1.284 2.896,1.712 1.092,0.428 2.276,0.642 3.551,0.642 0.674,0 1.175,0.166 1.503,0.499 0.327,0.349 0.491,0.714 0.491,1.094 0,0.412 -0.164,0.793 -0.491,1.142 -0.328,0.348 -0.829,0.523 -1.503,0.523 -1.803,0 -3.479,-0.294 -5.027,-0.88 -1.548,-0.587 -2.895,-1.379 -4.043,-2.378 -1.184,-1.031 -2.112,-2.22 -2.786,-3.567 -0.674,-1.348 -1.011,-2.79 -1.011,-4.328 V 18.467 c 0,-0.586 0.2,-1.022 0.601,-1.308 0.382,-0.285 0.81,-0.428 1.284,-0.428 0.473,0 0.911,0.143 1.311,0.428 0.401,0.286 0.601,0.722 0.601,1.308 v 9.37 h 9.289 c 0.673,0 1.174,0.158 1.502,0.476 z"
     fill="#2fb9b5"
     id="path33" />
  <path
     d="m 205.982,51.974 c 0,0.618 -0.2,1.062 -0.601,1.332 -0.401,0.285 -0.838,0.428 -1.311,0.428 -0.474,0 -0.911,-0.143 -1.312,-0.428 -0.4,-0.27 -0.601,-0.714 -0.601,-1.332 V 29.43 c 0,-0.586 0.201,-1.03 0.601,-1.331 0.401,-0.286 0.838,-0.429 1.312,-0.429 0.473,0 0.91,0.143 1.311,0.429 0.401,0.301 0.601,0.745 0.601,1.331 z m 1.011,-30.177 c 0,0.333 -0.073,0.65 -0.219,0.951 -0.164,0.317 -0.373,0.586 -0.628,0.808 -0.273,0.238 -0.583,0.421 -0.929,0.547 -0.364,0.143 -0.747,0.214 -1.147,0.214 -0.401,0 -0.774,-0.071 -1.12,-0.214 -0.365,-0.126 -0.674,-0.309 -0.929,-0.547 -0.255,-0.222 -0.456,-0.491 -0.601,-0.808 -0.164,-0.301 -0.246,-0.618 -0.246,-0.951 0,-0.349 0.082,-0.682 0.246,-0.999 0.145,-0.317 0.346,-0.595 0.601,-0.832 0.255,-0.238 0.564,-0.428 0.929,-0.571 0.346,-0.127 0.719,-0.19 1.12,-0.19 0.4,0 0.783,0.063 1.147,0.19 0.346,0.143 0.656,0.333 0.929,0.571 0.255,0.237 0.464,0.515 0.628,0.832 z"
     fill="#2fb9b5"
     id="path35" />
  <path
     d="m 56.33,141.43 c 0,0.412 -0.1639,0.793 -0.4917,1.142 -0.3278,0.348 -0.8287,0.523 -1.5025,0.523 -1.2567,0 -2.4405,0.214 -3.5515,0.642 -1.1109,0.428 -2.0944,1.007 -2.9504,1.736 -0.8378,0.713 -1.4934,1.546 -1.9669,2.497 -0.4736,0.967 -0.7103,2.005 -0.7103,3.115 v 12.889 c 0,0.618 -0.2004,1.062 -0.601,1.332 -0.4007,0.285 -0.8378,0.428 -1.3113,0.428 -0.4736,0 -0.9016,-0.143 -1.284,-0.428 -0.4007,-0.27 -0.601,-0.714 -0.601,-1.332 v -12.889 c 0,-1.569 0.3369,-3.028 1.0108,-4.376 0.6738,-1.347 1.6027,-2.536 2.7865,-3.567 1.1838,-1.03 2.5588,-1.839 4.1251,-2.425 1.5663,-0.587 3.2509,-0.88 5.054,-0.88 0.6738,0 1.1747,0.158 1.5025,0.476 z"
     stroke="#2fb9b5"
     stroke-width="2"
     mask="url(#path-2-outside-1_172_758)"
     id="path37"
     transform="translate(0,-112)" />
  <path
     d="m 81.6272,152.726 c 0,-1.332 -0.2914,-2.584 -0.8742,-3.757 -0.5828,-1.158 -1.3751,-2.172 -2.3768,-3.044 -1.0199,-0.872 -2.1946,-1.562 -3.5241,-2.069 -1.3477,-0.507 -2.7865,-0.761 -4.3163,-0.761 -1.5117,0 -2.9322,0.254 -4.2617,0.761 -1.3478,0.507 -2.5134,1.197 -3.4968,2.069 -1.0017,0.872 -1.794,1.886 -2.3768,3.044 -0.5828,1.173 -0.8742,2.425 -0.8742,3.757 0,1.332 0.2914,2.584 0.8742,3.757 0.5828,1.173 1.3751,2.196 2.3768,3.068 0.9834,0.872 2.149,1.562 3.4968,2.069 1.3295,0.507 2.75,0.761 4.2617,0.761 1.5298,0 2.9686,-0.254 4.3163,-0.761 1.3295,-0.507 2.5042,-1.197 3.5241,-2.069 1.0017,-0.872 1.794,-1.895 2.3768,-3.068 z m 3.7973,11.153 c 0,0.587 -0.2004,1.023 -0.601,1.308 -0.4007,0.301 -0.8378,0.452 -1.3113,0.452 -0.4736,0 -0.9015,-0.151 -1.284,-0.452 -0.4007,-0.285 -0.601,-0.721 -0.601,-1.308 v -2.521 c -1.3842,1.316 -3.0233,2.355 -4.9174,3.116 -1.8941,0.776 -3.9521,1.165 -6.174,1.165 -1.366,0 -2.6773,-0.159 -3.9339,-0.476 -1.2567,-0.301 -2.4314,-0.737 -3.5241,-1.308 -1.111,-0.555 -2.1127,-1.228 -3.0051,-2.021 -0.9106,-0.777 -1.6847,-1.649 -2.3221,-2.616 -0.6374,-0.951 -1.1292,-1.974 -1.4752,-3.068 -0.3643,-1.094 -0.5464,-2.235 -0.5464,-3.424 0,-1.776 0.3916,-3.448 1.1747,-5.018 0.765,-1.569 1.8213,-2.941 3.169,-4.114 1.3295,-1.157 2.8958,-2.077 4.6988,-2.758 1.8031,-0.666 3.7245,-0.999 5.7643,-0.999 1.3659,0 2.6863,0.151 3.9612,0.452 1.2749,0.317 2.4678,0.753 3.5787,1.308 1.0928,0.555 2.0945,1.22 3.0051,1.997 0.8924,0.793 1.6664,1.665 2.3221,2.616 0.6374,0.967 1.1383,1.998 1.5025,3.092 0.3461,1.093 0.5191,2.235 0.5191,3.424 z"
     stroke="#2fb9b5"
     stroke-width="2"
     mask="url(#path-2-outside-1_172_758)"
     id="path39"
     transform="translate(0,-112)" />
  <path
     d="m 114.956,163.974 c 0,0.618 -0.2,1.062 -0.601,1.332 -0.401,0.285 -0.838,0.428 -1.311,0.428 -0.474,0 -0.911,-0.143 -1.312,-0.428 -0.4,-0.27 -0.601,-0.714 -0.601,-1.332 v -12.889 c 0,-1.094 -0.236,-2.132 -0.71,-3.115 -0.473,-0.967 -1.12,-1.815 -1.94,-2.545 -0.837,-0.713 -1.803,-1.284 -2.895,-1.712 -1.111,-0.412 -2.295,-0.618 -3.552,-0.618 -1.256,0 -2.4402,0.206 -3.5512,0.618 -1.1291,0.428 -2.1035,0.999 -2.9231,1.712 -0.8377,0.73 -1.4934,1.578 -1.9669,2.545 -0.4918,0.983 -0.7376,2.021 -0.7376,3.115 v 12.889 c 0,0.618 -0.2004,1.062 -0.601,1.332 -0.4007,0.285 -0.8378,0.428 -1.3113,0.428 -0.4736,0 -0.9016,-0.143 -1.284,-0.428 -0.4007,-0.27 -0.601,-0.714 -0.601,-1.332 v -12.889 c 0,-1.538 0.346,-2.996 1.0381,-4.376 0.6738,-1.363 1.6027,-2.552 2.7865,-3.567 1.1838,-1.014 2.5588,-1.823 4.1251,-2.425 1.5663,-0.587 3.2414,-0.88 5.0264,-0.88 1.767,0 3.442,0.293 5.027,0.88 1.566,0.602 2.932,1.411 4.098,2.425 1.165,1.015 2.094,2.204 2.786,3.567 0.674,1.38 1.011,2.838 1.011,4.376 z"
     stroke="#2fb9b5"
     stroke-width="2"
     mask="url(#path-2-outside-1_172_758)"
     id="path41"
     transform="translate(0,-112)" />
  <path
     d="m 138.177,158.291 c 0,1.078 -0.237,2.068 -0.71,2.972 -0.492,0.904 -1.139,1.681 -1.94,2.331 -0.82,0.65 -1.767,1.149 -2.841,1.498 -1.093,0.364 -2.24,0.547 -3.442,0.547 h -8.688 c -0.674,0 -1.174,-0.175 -1.502,-0.523 -0.328,-0.349 -0.492,-0.73 -0.492,-1.142 0,-0.412 0.164,-0.785 0.492,-1.118 0.328,-0.317 0.828,-0.475 1.502,-0.475 h 8.688 c 0.674,0 1.32,-0.095 1.939,-0.286 0.62,-0.19 1.166,-0.467 1.639,-0.832 0.474,-0.349 0.856,-0.777 1.148,-1.284 0.273,-0.491 0.41,-1.054 0.41,-1.688 0,-0.714 -0.201,-1.38 -0.601,-1.998 -0.401,-0.618 -0.984,-1.062 -1.749,-1.332 l -8.387,-2.948 c -1.438,-0.508 -2.577,-1.285 -3.414,-2.331 -0.856,-1.046 -1.284,-2.235 -1.284,-3.567 0,-0.935 0.227,-1.791 0.683,-2.568 0.437,-0.777 1.029,-1.443 1.775,-1.998 0.747,-0.539 1.603,-0.959 2.568,-1.26 0.965,-0.301 1.958,-0.452 2.978,-0.452 h 7.649 c 0.674,0 1.184,0.158 1.53,0.476 0.328,0.332 0.492,0.705 0.492,1.117 0,0.412 -0.164,0.793 -0.492,1.142 -0.346,0.348 -0.856,0.523 -1.53,0.523 h -7.649 c -0.51,0 -1.011,0.063 -1.503,0.19 -0.51,0.143 -0.965,0.341 -1.366,0.595 -0.4,0.269 -0.719,0.586 -0.956,0.951 -0.255,0.38 -0.382,0.808 -0.382,1.284 0,0.666 0.209,1.237 0.628,1.712 0.419,0.492 0.975,0.864 1.667,1.118 l 8.441,2.949 c 0.729,0.253 1.384,0.602 1.967,1.046 0.583,0.444 1.075,0.943 1.475,1.498 0.401,0.571 0.711,1.181 0.929,1.831 z"
     stroke="#2fb9b5"
     stroke-width="2"
     mask="url(#path-2-outside-1_172_758)"
     id="path43"
     transform="translate(0,-112)" />
  <path
     d="m 145.58,163.974 c 0,0.618 -0.2,1.062 -0.601,1.332 -0.4,0.285 -0.837,0.428 -1.311,0.428 -0.474,0 -0.902,-0.143 -1.284,-0.428 -0.401,-0.27 -0.601,-0.714 -0.601,-1.332 v -33.507 c 0,-0.586 0.2,-1.022 0.601,-1.308 0.382,-0.285 0.81,-0.428 1.284,-0.428 0.474,0 0.911,0.143 1.311,0.428 0.401,0.286 0.601,0.722 0.601,1.308 z"
     stroke="#2fb9b5"
     stroke-width="2"
     mask="url(#path-2-outside-1_172_758)"
     id="path45"
     transform="translate(0,-112)" />
  <path
     d="m 175.057,152.726 c 0,-1.332 -0.291,-2.584 -0.874,-3.757 -0.583,-1.158 -1.375,-2.172 -2.377,-3.044 -1.02,-0.872 -2.194,-1.562 -3.524,-2.069 -1.348,-0.507 -2.786,-0.761 -4.316,-0.761 -1.512,0 -2.932,0.254 -4.262,0.761 -1.348,0.507 -2.513,1.197 -3.497,2.069 -1.001,0.872 -1.794,1.886 -2.376,3.044 -0.583,1.173 -0.875,2.425 -0.875,3.757 0,1.332 0.292,2.584 0.875,3.757 0.582,1.173 1.375,2.196 2.376,3.068 0.984,0.872 2.149,1.562 3.497,2.069 1.33,0.507 2.75,0.761 4.262,0.761 1.53,0 2.968,-0.254 4.316,-0.761 1.33,-0.507 2.504,-1.197 3.524,-2.069 1.002,-0.872 1.794,-1.895 2.377,-3.068 z m 3.798,11.153 c 0,0.587 -0.201,1.023 -0.601,1.308 -0.401,0.301 -0.838,0.452 -1.312,0.452 -0.473,0 -0.901,-0.151 -1.284,-0.452 -0.4,-0.285 -0.601,-0.721 -0.601,-1.308 v -2.521 c -1.384,1.316 -3.023,2.355 -4.917,3.116 -1.894,0.776 -3.952,1.165 -6.174,1.165 -1.366,0 -2.677,-0.159 -3.934,-0.476 -1.257,-0.301 -2.431,-0.737 -3.524,-1.308 -1.111,-0.555 -2.113,-1.228 -3.005,-2.021 -0.911,-0.777 -1.685,-1.649 -2.322,-2.616 -0.638,-0.951 -1.13,-1.974 -1.476,-3.068 -0.364,-1.094 -0.546,-2.235 -0.546,-3.424 0,-1.776 0.392,-3.448 1.175,-5.018 0.765,-1.569 1.821,-2.941 3.169,-4.114 1.329,-1.157 2.896,-2.077 4.699,-2.758 1.803,-0.666 3.724,-0.999 5.764,-0.999 1.366,0 2.686,0.151 3.961,0.452 1.275,0.317 2.468,0.753 3.579,1.308 1.093,0.555 2.094,1.22 3.005,1.997 0.892,0.793 1.666,1.665 2.322,2.616 0.637,0.967 1.138,1.998 1.502,3.092 0.346,1.093 0.52,2.235 0.52,3.424 z"
     stroke="#2fb9b5"
     stroke-width="2"
     mask="url(#path-2-outside-1_172_758)"
     id="path47"
     transform="translate(0,-112)" />
  <path
     d="m 197.568,141.43 c 0,0.412 -0.164,0.793 -0.492,1.142 -0.328,0.348 -0.829,0.523 -1.502,0.523 h -9.289 v 11.391 c 0,1.078 0.237,2.092 0.71,3.044 0.456,0.951 1.093,1.783 1.913,2.497 0.838,0.713 1.803,1.284 2.896,1.712 1.092,0.428 2.276,0.642 3.551,0.642 0.674,0 1.175,0.166 1.503,0.499 0.327,0.349 0.491,0.714 0.491,1.094 0,0.412 -0.164,0.793 -0.491,1.142 -0.328,0.348 -0.829,0.523 -1.503,0.523 -1.803,0 -3.479,-0.294 -5.027,-0.88 -1.548,-0.587 -2.895,-1.379 -4.043,-2.378 -1.184,-1.031 -2.112,-2.22 -2.786,-3.567 -0.674,-1.348 -1.011,-2.79 -1.011,-4.328 v -24.019 c 0,-0.586 0.2,-1.022 0.601,-1.308 0.382,-0.285 0.81,-0.428 1.284,-0.428 0.473,0 0.911,0.143 1.311,0.428 0.401,0.286 0.601,0.722 0.601,1.308 v 9.37 h 9.289 c 0.673,0 1.174,0.158 1.502,0.476 z"
     stroke="#2fb9b5"
     stroke-width="2"
     mask="url(#path-2-outside-1_172_758)"
     id="path49"
     transform="translate(0,-112)" />
  <path
     d="m 205.982,163.974 c 0,0.618 -0.2,1.062 -0.601,1.332 -0.401,0.285 -0.838,0.428 -1.311,0.428 -0.474,0 -0.911,-0.143 -1.312,-0.428 -0.4,-0.27 -0.601,-0.714 -0.601,-1.332 V 141.43 c 0,-0.586 0.201,-1.03 0.601,-1.331 0.401,-0.286 0.838,-0.429 1.312,-0.429 0.473,0 0.91,0.143 1.311,0.429 0.401,0.301 0.601,0.745 0.601,1.331 z m 1.011,-30.177 c 0,0.333 -0.073,0.65 -0.219,0.951 -0.164,0.317 -0.373,0.586 -0.628,0.808 -0.273,0.238 -0.583,0.421 -0.929,0.547 -0.364,0.143 -0.747,0.214 -1.147,0.214 -0.401,0 -0.774,-0.071 -1.12,-0.214 -0.365,-0.126 -0.674,-0.309 -0.929,-0.547 -0.255,-0.222 -0.456,-0.491 -0.601,-0.808 -0.164,-0.301 -0.246,-0.618 -0.246,-0.951 0,-0.349 0.082,-0.682 0.246,-0.999 0.145,-0.317 0.346,-0.595 0.601,-0.832 0.255,-0.238 0.564,-0.428 0.929,-0.571 0.346,-0.127 0.719,-0.19 1.12,-0.19 0.4,0 0.783,0.063 1.147,0.19 0.346,0.143 0.656,0.333 0.929,0.571 0.255,0.237 0.464,0.515 0.628,0.832 z"
     stroke="#2fb9b5"
     stroke-width="2"
     mask="url(#path-2-outside-1_172_758)"
     id="path51"
     transform="translate(0,-112)" />
  <rect
     x="209.32899"
     y="26.998001"
     width="64.9207"
     height="26.7927"
     rx="13.3963"
     fill="#2fb9b5"
     id="rect53" />
  <circle
     cx="222.726"
     cy="40.394997"
     r="10.3049"
     fill="#ffffff"
     id="circle55" />
  <path
     d="m 46.1506,21.803 c -2.4101,0 -17.0972,0.255 -17.0972,0.255 l 7.7714,7.409 c 0,0 -1.6863,5.479 -3.8596,3.574 -2.1732,-1.906 -8.4869,-8.086 -10.9061,-10.472 -2.4192,-2.386 -1.2952,-5.876 1.8134,-5.876 h 21.76 c 2.41,0 2.9281,5.11 0.5181,5.11 z"
     fill="#2fb9b5"
     id="path57" />
  <path
     d="M 38.1204,51.436 V 40.342 c -2.1245,-1.289 -3.3156,-0.708 -5.4401,-1.997 l 10e-5,13.091 c 0,3.827 5.44,3.827 5.44,0 z"
     fill="#2fb9b5"
     id="path59" />
  <path
     d="m 38.1204,37.957 v 11.094 c -2.1245,1.289 -3.3156,0.709 -5.4401,1.998 l 10e-5,-13.092 c 0,-3.826 5.44,-3.826 5.44,0 z"
     fill="#2fb9b5"
     id="path61" />
  <path
     d="m 36.4255,28.998 -7.968,-7.467 -5.1027,2.315 c 0,0 6.5488,6.505 9.3276,9.037 2.7789,2.531 6.4911,-1.309 3.7431,-3.885 z"
     fill="#2fb9b5"
     id="path63" />
  <path
     d="M 45.6299,16.694 H 34.3801 l -2.0464,4.765 c 0,0 9.3274,0.65 13.2962,0.596 3.9687,-0.054 3.8798,-5.361 0,-5.361 z"
     fill="#2fb9b5"
     id="path65" />
  <path
     d="m 31.9619,16.693 h 11.2498 c 1.307,2.094 0.7185,3.268 2.0255,5.362 0,0 -10.3422,-0.06 -14.2221,-0.06 -3.8799,0 -2.9331,-5.302 0.9468,-5.302 z"
     fill="#2fb9b5"
     id="path67" />
</svg>
